<?xml version="1.0" encoding="UTF-8"?>
<svg xmlns="http://www.w3.org/2000/svg" xmlns:xlink="http://www.w3.org/1999/xlink" width="16px" height="16px" viewBox="0 0 16 16" version="1.1">
<g id="surface1">
<path style=" stroke:none;fill-rule:nonzero;fill:rgb(100%,100%,100%);fill-opacity:1;" d="M 0.03125 5.371094 L 3.652344 0.015625 L 9.613281 0.015625 C 9.738281 0.015625 9.71875 0.046875 9.71875 0.15625 L 9.71875 5.371094 L 13.234375 0.015625 L 15.964844 0.015625 L 15.964844 2.84375 L 14.253906 5.371094 L 9.71875 5.371094 L 9.71875 15.984375 L 5.4375 15.984375 L 5.4375 10.347656 L 9.71875 5.371094 Z M 0.03125 5.371094 "/>
<path style="fill:none;stroke-width:1;stroke-linecap:butt;stroke-linejoin:miter;stroke:rgb(100%,100%,100%);stroke-opacity:1;stroke-miterlimit:4;" d="M 301.28125 168.182373 L 0.96875 168.182373 C 44.804688 102.621826 113.222656 0.489258 113.222656 0.489258 C 113.222656 0.489258 294.136719 0.489258 298.011719 0.489258 C 301.886719 0.489258 301.28125 1.467773 301.28125 4.892578 C 301.28125 8.195068 301.28125 168.182373 301.28125 168.182373 Z M 301.28125 168.182373 L 168.5625 324.010986 L 168.5625 500.510742 L 301.28125 500.510742 Z M 301.28125 168.182373 L 441.871094 168.182373 L 494.910156 89.044922 L 494.910156 0.489258 C 461.851562 0.489258 443.324219 0.489258 410.265625 0.489258 Z M 301.28125 168.182373 " transform="matrix(0.0322581,0,0,0.0319361,0,0)"/>
</g>
</svg>
