<?xml version="1.0" encoding="UTF-8"?>
<svg xmlns="http://www.w3.org/2000/svg" xmlns:xlink="http://www.w3.org/1999/xlink" width="16px" height="16px" viewBox="0 0 16 16" version="1.1">
<g id="surface1">
<path style=" stroke:none;fill-rule:nonzero;fill:rgb(100%,100%,100%);fill-opacity:1;" d="M 0.121094 5.386719 L 3.714844 0.0625 L 9.628906 0.0625 C 9.75 0.0625 9.730469 0.09375 9.730469 0.203125 L 9.730469 5.386719 L 13.21875 0.0625 L 15.929688 0.0625 L 15.929688 2.875 L 14.226562 5.386719 L 9.730469 5.386719 L 9.730469 15.9375 L 5.484375 15.9375 L 5.484375 10.332031 L 9.730469 5.386719 Z M 0.121094 5.386719 "/>
<path style="fill:none;stroke-width:4;stroke-linecap:butt;stroke-linejoin:miter;stroke:rgb(0%,0%,0%);stroke-opacity:1;stroke-miterlimit:4;" d="M 304.077148 169.681641 L 3.78418 169.681641 C 47.607422 104.220703 116.088867 1.96875 116.088867 1.96875 C 116.088867 1.96875 296.99707 1.96875 300.90332 1.96875 C 304.6875 1.96875 304.077148 2.953125 304.077148 6.398438 C 304.077148 9.720703 304.077148 169.681641 304.077148 169.681641 Z M 304.077148 169.681641 L 171.386719 325.458984 L 171.386719 502.03125 L 304.077148 502.03125 Z M 304.077148 169.681641 L 444.580078 169.681641 L 497.802734 90.5625 L 497.802734 1.96875 C 464.72168 1.96875 446.166992 1.96875 413.085938 1.96875 Z M 304.077148 169.681641 " transform="matrix(0.032,0,0,0.031746,0,0)"/>
</g>
</svg>
